<svg width="300" height="56" viewBox="0 0 300 56" xmlns="http://www.w3.org/2000/svg" role="img" aria-label="Download for Windows on ARM"><title>Download for Windows on ARM</title><rect x="0" y="0" width="300" height="56" rx="16" fill="#1C1C21"/><circle cx="28" cy="28" r="18" fill="#2A2A31"/><svg x="15.335" y="15.335" width="25.33" height="25.33" viewBox="0 0 24 24" fill="#fff"><g fill="#fff"><rect x="3" y="3" width="8" height="8" rx="1.4"/><rect x="13" y="3" width="8" height="8" rx="1.4"/><rect x="3" y="13" width="8" height="8" rx="1.4"/><rect x="13" y="13" width="8" height="8" rx="1.4"/></g></svg><text x="54" y="24" font-family="-apple-system,'Segoe UI',Roboto,Helvetica,Arial,sans-serif" font-size="13.5" font-weight="700" fill="#F5F3F6">Download for Windows</text><text x="54" y="39.5" font-family="-apple-system,'Segoe UI',Roboto,Helvetica,Arial,sans-serif" font-size="11" font-weight="500" fill="#A7A2AC">ARM64 (Surface and similar)</text><svg x="263" y="19" width="18" height="18" viewBox="0 0 24 24" fill="none" stroke="#FF9DB8" stroke-width="2" stroke-linecap="round" stroke-linejoin="round"><path d="M12 15V3"/><path d="M21 15v4a2 2 0 0 1-2 2H5a2 2 0 0 1-2-2v-4"/><path d="m7 10 5 5 5-5"/></svg></svg>
