<svg width="300" height="56" viewBox="0 0 300 56" xmlns="http://www.w3.org/2000/svg" role="img" aria-label="Donate with PayPal"><title>Donate with PayPal</title><rect x="0" y="0" width="300" height="56" rx="16" fill="#003087"/><circle cx="28" cy="28" r="18" fill="rgba(255,255,255,0.18)"/><svg x="18.5" y="18.5" width="19" height="19" viewBox="0 0 24 24" fill="#fff"><path d="M15.607 4.653H8.941L6.645 19.251H1.82L4.862 0h7.995c3.754 0 6.375 2.294 6.473 5.513-.648-.478-2.105-.86-3.722-.86m6.57 5.546c0 3.41-3.01 6.853-6.958 6.853h-2.493L11.595 24H6.74l1.845-11.538h3.592c4.208 0 7.346-3.634 7.153-6.949a5.24 5.24 0 0 1 2.848 4.686M9.653 5.546h6.408c.907 0 1.942.222 2.363.541-.195 2.741-2.655 5.483-6.441 5.483H8.714Z"/></svg><text x="54" y="33" font-family="-apple-system,'Segoe UI',Roboto,Helvetica,Arial,sans-serif" font-size="14.5" font-weight="700" fill="#fff">Donate with PayPal</text><svg x="263" y="18.63" width="18" height="18" viewBox="0 0 24 24" fill="none" stroke="#fff" stroke-width="2" stroke-linecap="round" stroke-linejoin="round"><path d="M2 9.5a5.5 5.5 0 0 1 9.591-3.676.56.56 0 0 0 .818 0A5.49 5.49 0 0 1 22 9.5c0 2.29-1.5 4-3 5.5l-5.492 5.313a2 2 0 0 1-3 .019L5 15c-1.5-1.5-3-3.2-3-5.5"/></svg></svg>
