<svg width="300" height="56" viewBox="0 0 300 56" xmlns="http://www.w3.org/2000/svg" role="img" aria-label="Download for Mac, Apple Silicon"><title>Download for Mac, Apple Silicon</title><rect x="0" y="0" width="300" height="56" rx="16" fill="#1C1C21"/><circle cx="28" cy="28" r="18" fill="#2A2A31"/><svg x="18.5" y="18.5" width="19" height="19" viewBox="0 0 24 24" fill="#fff"><path d="M12.152 6.896c-.948 0-2.415-1.078-3.96-1.04-2.04.027-3.91 1.183-4.961 3.014-2.117 3.675-.546 9.103 1.519 12.09 1.013 1.454 2.208 3.09 3.792 3.039 1.52-.065 2.09-.987 3.935-.987 1.831 0 2.35.987 3.96.948 1.637-.026 2.676-1.48 3.676-2.948 1.156-1.688 1.636-3.325 1.662-3.415-.039-.013-3.182-1.221-3.22-4.857-.026-3.04 2.48-4.494 2.597-4.559-1.429-2.09-3.623-2.324-4.39-2.376-2-.156-3.675 1.09-4.61 1.09zM15.53 3.83c.843-1.012 1.4-2.427 1.245-3.83-1.207.052-2.662.805-3.532 1.818-.78.896-1.454 2.338-1.273 3.714 1.338.104 2.715-.688 3.559-1.701"/></svg><text x="54" y="24" font-family="-apple-system,'Segoe UI',Roboto,Helvetica,Arial,sans-serif" font-size="13.5" font-weight="700" fill="#F5F3F6">Download for Mac</text><text x="54" y="39.5" font-family="-apple-system,'Segoe UI',Roboto,Helvetica,Arial,sans-serif" font-size="11" font-weight="500" fill="#A7A2AC">Apple Silicon (M1 and newer)</text><svg x="263" y="19" width="18" height="18" viewBox="0 0 24 24" fill="none" stroke="#FF9DB8" stroke-width="2" stroke-linecap="round" stroke-linejoin="round"><path d="M12 15V3"/><path d="M21 15v4a2 2 0 0 1-2 2H5a2 2 0 0 1-2-2v-4"/><path d="m7 10 5 5 5-5"/></svg></svg>
